<?xml version="1.0" encoding="UTF-8" standalone="no"?>
<!DOCTYPE svg PUBLIC "-//W3C//DTD SVG 1.1//EN" "http://www.w3.org/Graphics/SVG/1.1/DTD/svg11.dtd">
<!-- Generated by graphviz version 2.40.1 (20161225.0304)
 -->
<!-- Title: tables Pages: 1 -->
<svg width="205pt" height="188pt" viewBox="0.00 0.00 204.69 188.00" xmlns="http://www.w3.org/2000/svg" xmlns:xlink="http://www.w3.org/1999/xlink">
<g id="graph0" class="graph" transform="scale(1 1) rotate(0) translate(4 184)">
<title>tables</title>
<polygon fill="#ffffff" stroke="transparent" points="-4,4 -4,-184 200.6853,-184 200.6853,4 -4,4"/>
<!-- Tom -->
<g id="node1" class="node">
<title>Tom</title>
<ellipse fill="none" stroke="#000000" cx="69.7348" cy="-162" rx="29.0548" ry="18"/>
<text text-anchor="middle" x="69.7348" y="-157.8" font-family="Times,serif" font-size="14.00" fill="#000000">Tom</text>
</g>
<!-- Fred -->
<g id="node2" class="node">
<title>Fred</title>
<ellipse fill="none" stroke="#000000" cx="28.7348" cy="-90" rx="28.9715" ry="18"/>
<text text-anchor="middle" x="28.7348" y="-85.8" font-family="Times,serif" font-size="14.00" fill="#000000">Fred</text>
</g>
<!-- Tom&#45;&#45;Fred -->
<g id="edge1" class="edge">
<title>Tom--Fred</title>
<path fill="none" stroke="#000000" d="M60.0184,-144.937C53.5774,-133.626 45.1509,-118.8282 38.6663,-107.4407"/>
</g>
<!-- Jim -->
<g id="node3" class="node">
<title>Jim</title>
<ellipse fill="none" stroke="#000000" cx="68.7348" cy="-18" rx="27" ry="18"/>
<text text-anchor="middle" x="68.7348" y="-13.8" font-family="Times,serif" font-size="14.00" fill="#000000">Jim</text>
</g>
<!-- Tom&#45;&#45;Jim -->
<g id="edge2" class="edge">
<title>Tom--Jim</title>
<path fill="none" stroke="#000000" d="M69.6081,-143.7623C69.4158,-116.0633 69.0522,-63.7005 68.8604,-36.0896"/>
</g>
<!-- Fred&#45;&#45;Jim -->
<g id="edge3" class="edge">
<title>Fred--Jim</title>
<path fill="none" stroke="#000000" d="M38.2142,-72.937C44.5906,-61.4596 52.9613,-46.3922 59.3234,-34.9405"/>
</g>
<!-- Mary -->
<g id="node4" class="node">
<title>Mary</title>
<ellipse fill="none" stroke="#000000" cx="164.7348" cy="-162" rx="31.9012" ry="18"/>
<text text-anchor="middle" x="164.7348" y="-157.8" font-family="Times,serif" font-size="14.00" fill="#000000">Mary</text>
</g>
<!-- Sue -->
<g id="node5" class="node">
<title>Sue</title>
<ellipse fill="none" stroke="#000000" cx="149.7348" cy="-90" rx="27" ry="18"/>
<text text-anchor="middle" x="149.7348" y="-85.8" font-family="Times,serif" font-size="14.00" fill="#000000">Sue</text>
</g>
<!-- Mary&#45;&#45;Sue -->
<g id="edge4" class="edge">
<title>Mary--Sue</title>
<path fill="none" stroke="#000000" d="M160.9497,-143.8314C158.6584,-132.8334 155.7483,-118.865 153.4668,-107.9134"/>
</g>
<!-- Ann -->
<g id="node6" class="node">
<title>Ann</title>
<ellipse fill="none" stroke="#000000" cx="165.7348" cy="-18" rx="27.8306" ry="18"/>
<text text-anchor="middle" x="165.7348" y="-13.8" font-family="Times,serif" font-size="14.00" fill="#000000">Ann</text>
</g>
<!-- Mary&#45;&#45;Ann -->
<g id="edge5" class="edge">
<title>Mary--Ann</title>
<path fill="none" stroke="#000000" d="M173.4543,-144.491C178.1108,-134.1547 183.3608,-120.6547 185.7348,-108 188.6849,-92.2743 188.5576,-87.749 185.7348,-72 183.4772,-59.4041 178.4772,-45.9041 174.0416,-35.5531"/>
</g>
<!-- Sue&#45;&#45;Ann -->
<g id="edge6" class="edge">
<title>Sue--Ann</title>
<path fill="none" stroke="#000000" d="M153.7723,-71.8314C156.2163,-60.8334 159.3204,-46.865 161.754,-35.9134"/>
</g>
</g>
</svg>